<svg width="156" height="145" viewBox="0 0 156 145" fill="none" xmlns="http://www.w3.org/2000/svg">
<g clip-path="url(#clip0_276_1133)">
<path opacity="0.2" fill-rule="evenodd" clip-rule="evenodd" d="M53.9084 34.5646C83.6831 34.5646 107.82 58.7221 107.82 88.5255C107.82 118.329 83.6831 142.486 53.9084 142.486C24.1337 142.486 -0.000671387 118.329 -0.000671387 88.5255C-0.000671387 58.7221 24.1364 34.5646 53.9084 34.5646Z" fill="#8EBEE2"/>
<path fill-rule="evenodd" clip-rule="evenodd" d="M19.6696 63.2209C36.03 60.5021 55.6783 57.7942 88.916 63.3661L84.7336 83.4357L87.3158 145H18.9037C19.2183 141.389 21.8251 112.106 22.0029 84.1887L19.6696 63.2209Z" fill="#8EBEE2"/>
<path fill-rule="evenodd" clip-rule="evenodd" d="M142.136 16.2144H75.7454C74.6263 16.218 73.5542 16.6645 72.7629 17.4565C71.9717 18.2486 71.5255 19.3218 71.5219 20.4419V51.8469C71.5255 52.967 71.9717 54.0402 72.7629 54.8322C73.5542 55.6243 74.6263 56.0708 75.7454 56.0744H142.136C143.255 56.0708 144.327 55.6243 145.118 54.8322C145.91 54.0402 146.356 52.967 146.359 51.8469V20.4419C146.356 19.3218 145.91 18.2486 145.118 17.4565C144.327 16.6645 143.255 16.218 142.136 16.2144Z" fill="white" stroke="#9ECFFF" stroke-width="1.93872" stroke-miterlimit="22.93"/>
<path d="M84.022 36.4294H133.858C135.426 36.4345 136.929 37.0604 138.038 38.1704C139.147 39.2805 139.772 40.7846 139.777 42.3545V42.5653C139.772 44.1352 139.147 45.6393 138.038 46.7494C136.929 47.8595 135.426 48.4854 133.858 48.4904H84.022C82.4536 48.4854 80.9509 47.8595 79.8419 46.7494C78.7329 45.6393 78.1076 44.1352 78.1026 42.5653V42.3545C78.1076 40.7846 78.7329 39.2805 79.8419 38.1704C80.9509 37.0604 82.4536 36.4345 84.022 36.4294Z" stroke="#9ECFFF" stroke-width="1.93872" stroke-miterlimit="22.93"/>
<path d="M83.7817 29.6283V23.8976H86.2599C86.7141 23.8867 87.1654 23.9725 87.5839 24.1495C87.9353 24.2961 88.2346 24.5451 88.4428 24.8642C88.6515 25.1975 88.7571 25.5852 88.7464 25.9785C88.7547 26.3655 88.6491 26.7464 88.4428 27.0737C88.2342 27.3931 87.9351 27.6429 87.5839 27.7911C87.1652 27.9672 86.7139 28.0521 86.2599 28.0403H84.523L85.1111 27.4434V29.6338L83.7817 29.6283ZM85.1056 27.5994L84.523 26.9697H86.1916C86.52 26.9918 86.8453 26.8946 87.1079 26.6959C87.2041 26.5998 87.2804 26.4856 87.3325 26.3599C87.3845 26.2342 87.4113 26.0995 87.4113 25.9635C87.4113 25.8274 87.3845 25.6927 87.3325 25.567C87.2804 25.4413 87.2041 25.3272 87.1079 25.2311C86.8453 25.0324 86.52 24.9352 86.1916 24.9573H84.523L85.1111 24.3275V27.5994H85.1056ZM88.6616 29.6283L91.2137 23.8976H92.5212L95.0816 29.6283H93.692L91.5994 24.5712H92.1219L90.0211 29.6283H88.6616ZM89.939 28.4017L90.2892 27.3941H93.2215L93.5798 28.4017H89.939ZM97.5598 29.7269C97.1147 29.7291 96.6717 29.6673 96.2441 29.5434C95.8793 29.4474 95.5353 29.285 95.2293 29.0643L95.6806 28.0649C96.2365 28.4473 96.8936 28.6551 97.568 28.6618C97.7822 28.6684 97.9962 28.6426 98.2027 28.5851C98.3395 28.5486 98.4629 28.4735 98.5583 28.3688C98.6336 28.2792 98.6743 28.1656 98.6731 28.0485C98.6754 27.9776 98.6601 27.9072 98.6286 27.8437C98.5971 27.7801 98.5504 27.7254 98.4926 27.6843C98.3494 27.5826 98.1891 27.5075 98.0194 27.4625C97.8224 27.4078 97.6063 27.353 97.3684 27.301C97.1304 27.249 96.8951 27.1833 96.6572 27.1066C96.4293 27.0351 96.2108 26.9368 96.0061 26.8136C95.8113 26.6948 95.6472 26.5316 95.5274 26.3372C95.3962 26.1087 95.3326 25.8476 95.3442 25.5843C95.3439 25.2652 95.4392 24.9533 95.6177 24.6889C95.8167 24.4004 96.0951 24.1759 96.4192 24.0428C96.8457 23.8678 97.3043 23.7848 97.765 23.7991C98.1235 23.7993 98.4808 23.8425 98.8291 23.9278C99.1559 24.0035 99.4681 24.132 99.7536 24.3083L99.3433 25.3159C99.0915 25.1687 98.8223 25.0537 98.5418 24.9737C98.286 24.9031 98.0221 24.8663 97.7568 24.8642C97.5434 24.8576 97.3306 24.8882 97.1277 24.9545C96.99 24.9963 96.8675 25.0772 96.7748 25.1872C96.7042 25.2831 96.6667 25.3994 96.6681 25.5185C96.6667 25.5881 96.6825 25.657 96.714 25.7191C96.7454 25.7812 96.7917 25.8345 96.8486 25.8745C96.9924 25.9763 97.1538 26.0506 97.3246 26.0935C97.5188 26.1483 97.7376 26.2003 97.9729 26.2551C98.2081 26.3098 98.4488 26.3728 98.6841 26.444C98.912 26.5069 99.1308 26.5989 99.3351 26.7178C99.5298 26.8356 99.6939 26.9979 99.8138 27.1915C99.9437 27.4175 100.007 27.6757 99.9971 27.9362C99.9975 28.2519 99.9021 28.5604 99.7235 28.8206C99.5171 29.1099 99.2324 29.3341 98.9029 29.4668C98.4744 29.6451 98.0127 29.7291 97.5489 29.7132L97.5598 29.7269ZM102.779 29.7269C102.334 29.7291 101.891 29.6673 101.463 29.5434C101.098 29.4474 100.754 29.285 100.448 29.0643L100.897 28.0649C101.165 28.2508 101.459 28.3956 101.77 28.4948C102.097 28.6056 102.441 28.662 102.787 28.6618C103.001 28.6684 103.215 28.6426 103.422 28.5851C103.558 28.5479 103.682 28.473 103.777 28.3688C103.853 28.2792 103.893 28.1656 103.892 28.0485C103.895 27.9776 103.879 27.9072 103.848 27.8437C103.816 27.7801 103.77 27.7254 103.712 27.6843C103.568 27.5826 103.406 27.5075 103.236 27.4625C103.042 27.4078 102.823 27.353 102.587 27.301C102.352 27.249 102.112 27.1833 101.876 27.1066C101.648 27.0351 101.43 26.9368 101.225 26.8136C101.03 26.6948 100.866 26.5316 100.747 26.3372C100.615 26.1087 100.552 25.8476 100.563 25.5843C100.563 25.2652 100.658 24.9533 100.837 24.6889C101.035 24.3998 101.314 24.1752 101.638 24.0428C102.065 23.8672 102.523 23.7842 102.984 23.7991C103.342 23.7993 103.698 23.8425 104.045 23.9278C104.373 24.0025 104.685 24.1311 104.97 24.3083L104.562 25.3159C104.31 25.1692 104.041 25.0542 103.761 24.9737C103.505 24.9033 103.241 24.8665 102.976 24.8642C102.762 24.8577 102.548 24.8882 102.344 24.9545C102.207 24.9969 102.086 25.0777 101.994 25.1872C101.923 25.2831 101.886 25.3994 101.887 25.5185C101.886 25.5881 101.902 25.657 101.933 25.7191C101.965 25.7812 102.011 25.8345 102.068 25.8745C102.211 25.9763 102.371 26.0506 102.541 26.0935C102.738 26.1483 102.954 26.2003 103.192 26.2551C103.43 26.3098 103.665 26.3728 103.903 26.444C104.131 26.5069 104.35 26.5989 104.554 26.7178C104.749 26.8356 104.913 26.9979 105.033 27.1915C105.163 27.4175 105.226 27.6757 105.216 27.9362C105.218 28.2521 105.122 28.5609 104.943 28.8206C104.741 29.1078 104.462 29.3318 104.138 29.4668C103.71 29.6446 103.248 29.7286 102.784 29.7132L102.779 29.7269ZM107.489 29.6283L105.618 23.8976H106.986L108.594 28.9739H107.908L109.609 23.8976H110.835L112.476 28.9739H111.814L113.483 23.8976H114.749L112.878 29.6283H111.453L110.011 25.19H110.389L108.898 29.642L107.489 29.6283ZM118.22 29.7269C117.792 29.7309 117.366 29.6557 116.965 29.5051C116.594 29.3672 116.254 29.1558 115.966 28.8836C115.687 28.6173 115.464 28.2969 115.313 27.9417C115.003 27.1865 115.003 26.3395 115.313 25.5843C115.466 25.2285 115.69 24.9079 115.972 24.6424C116.261 24.3726 116.6 24.1615 116.97 24.0208C117.774 23.725 118.656 23.725 119.459 24.0208C119.827 24.1616 120.163 24.3727 120.45 24.6424C120.738 24.9143 120.966 25.2435 121.12 25.6089C121.274 25.9743 121.351 26.3678 121.344 26.7643C121.347 27.1706 121.267 27.5731 121.109 27.9472C120.955 28.3026 120.731 28.6231 120.45 28.889C120.163 29.1571 119.826 29.3663 119.459 29.5051C119.064 29.6562 118.644 29.7314 118.22 29.7269ZM118.22 28.5988C118.463 28.6015 118.703 28.5569 118.929 28.4674C119.142 28.3807 119.335 28.2522 119.498 28.0895C119.662 27.9234 119.791 27.726 119.878 27.5091C119.97 27.2718 120.015 27.0189 120.012 26.7643C120.016 26.5097 119.97 26.2568 119.878 26.0196C119.792 25.802 119.664 25.6037 119.5 25.4364C119.338 25.2737 119.145 25.146 118.931 25.0613C118.705 24.9718 118.464 24.9272 118.22 24.9299C117.979 24.927 117.739 24.9716 117.514 25.0613C117.302 25.1467 117.108 25.2743 116.946 25.4364C116.78 25.6029 116.651 25.8013 116.565 26.0196C116.383 26.4974 116.383 27.0258 116.565 27.5036C116.649 27.7222 116.777 27.9215 116.94 28.0895C117.101 28.254 117.295 28.3828 117.509 28.4674C117.735 28.5566 117.977 28.6012 118.22 28.5988ZM122.351 29.6283V23.8976H124.829C125.283 23.8867 125.734 23.9725 126.153 24.1495C126.504 24.2961 126.804 24.5451 127.012 24.8642C127.22 25.1975 127.326 25.5852 127.315 25.9785C127.324 26.3656 127.219 26.7466 127.012 27.0737C126.802 27.3901 126.503 27.6369 126.153 27.7829C125.733 27.9544 125.282 28.0374 124.829 28.0266H123.065L123.653 27.4461V29.6365L122.351 29.6283ZM125.991 29.6283L124.558 27.5502H125.975L127.422 29.6283H125.991ZM123.675 27.5994L123.086 26.9779H124.733C125.062 27.0015 125.388 26.9041 125.65 26.7041C125.746 26.6077 125.822 26.4933 125.874 26.3674C125.926 26.2415 125.953 26.1066 125.953 25.9703C125.953 25.834 125.926 25.6991 125.874 25.5732C125.822 25.4473 125.746 25.3329 125.65 25.2365C125.387 25.0379 125.062 24.9406 124.733 24.9627H123.065L123.653 24.333V27.5994H123.675ZM128.363 29.6283V23.8976H130.964C131.532 23.8875 132.093 24.0093 132.606 24.2536C133.062 24.4752 133.447 24.8205 133.716 25.2502C133.978 25.709 134.115 26.228 134.115 26.7561C134.115 27.2843 133.978 27.8033 133.716 28.262C133.448 28.6939 133.063 29.0406 132.606 29.2614C132.094 29.5069 131.532 29.6289 130.964 29.6174L128.363 29.6283ZM129.687 28.5331H130.899C131.243 28.5409 131.583 28.4658 131.892 28.3141C132.165 28.1772 132.392 27.963 132.545 27.698C132.698 27.4066 132.778 27.0824 132.778 26.7534C132.778 26.4243 132.698 26.1002 132.545 25.8088C132.391 25.5458 132.164 25.3329 131.892 25.1955C131.583 25.0447 131.242 24.9705 130.899 24.9792H129.657V28.5386L129.687 28.5331Z" fill="#265BA3"/>
<path d="M91.4187 41.8341L89.9553 42.6336V42.2969L91.4187 43.0854L90.7649 44.1697L89.4137 43.3565L89.5832 43.2552L89.6161 44.7556H88.3304L88.366 43.2552L88.5356 43.3565L87.1816 44.1697L86.5388 43.0854L88.0049 42.2969V42.6336L86.5388 41.8341L87.1816 40.7499L88.5356 41.574L88.366 41.6753L88.3304 40.1639H89.6161L89.5832 41.6753L89.4137 41.574L90.7649 40.7499L91.4187 41.8341Z" fill="#FE8A54"/>
<path d="M99.4036 41.8341L97.9402 42.6336V42.2969L99.4036 43.0854L98.7499 44.1697L97.3986 43.3565L97.5682 43.2552L97.601 44.7556H96.3154L96.3509 43.2552L96.5178 43.3565L95.1665 44.1697L94.5237 43.0854L95.9899 42.2969V42.6336L94.5237 41.8341L95.1665 40.7499L96.5178 41.574L96.3509 41.6753L96.3154 40.1639H97.601L97.5682 41.6753L97.3986 41.574L98.7499 40.7499L99.4036 41.8341Z" fill="#FE8A54"/>
<path d="M107.388 41.8341L105.922 42.6336V42.2969L107.388 43.0854L106.734 44.1697L105.383 43.3565L105.55 43.2552L105.585 44.7556H104.299L104.335 43.2552L104.502 43.3565L103.151 44.1697L102.508 43.0854L103.974 42.2969V42.6336L102.508 41.8341L103.151 40.7499L104.502 41.574L104.335 41.6753L104.299 40.1639H105.585L105.55 41.6753L105.383 41.574L106.734 40.7499L107.388 41.8341Z" fill="#FE8A54"/>
<path d="M115.373 41.8341L113.906 42.6336V42.2969L115.373 43.0854L114.719 44.1697L113.365 43.3565L113.534 43.2552L113.57 44.7556H112.284L112.317 43.2552L112.487 43.3565L111.135 44.1697L110.493 43.0854L111.956 42.2969V42.6336L110.493 41.8341L111.135 40.7499L112.487 41.574L112.317 41.6753L112.284 40.1639H113.57L113.534 41.6753L113.365 41.574L114.719 40.7499L115.373 41.8341Z" fill="#FE8A54"/>
<path d="M123.358 41.8341L121.891 42.6336V42.2969L123.358 43.0854L122.704 44.1697L121.35 43.3565L121.519 43.2552L121.555 44.7556H120.269L120.302 43.2552L120.472 43.3565L119.12 44.1697L118.478 43.0854L119.941 42.2969V42.6336L118.478 41.8341L119.12 40.7499L120.472 41.574L120.302 41.6753L120.269 40.1639H121.555L121.519 41.6753L121.35 41.574L122.704 40.7499L123.358 41.8341Z" fill="#FE8A54"/>
<path d="M131.342 41.8341L129.875 42.6336V42.2969L131.342 43.0854L130.688 44.1697L129.334 43.3565L129.503 43.2552L129.536 44.7556H128.253L128.286 43.2552L128.456 43.3565L127.105 44.1697L126.462 43.0854L127.925 42.2969V42.6336L126.462 41.8341L127.105 40.7499L128.456 41.574L128.286 41.6753L128.253 40.1639H129.536L129.503 41.6753L129.334 41.574L130.688 40.7499L131.342 41.8341Z" fill="#FE8A54"/>
<path fill-rule="evenodd" clip-rule="evenodd" d="M135.242 21.0826L143.791 6.82028C143.941 6.56784 144.154 6.35881 144.41 6.21366C144.665 6.0685 144.954 5.99219 145.247 5.99219C145.541 5.99219 145.829 6.0685 146.085 6.21366C146.34 6.35881 146.553 6.56784 146.704 6.82028L155.252 21.0826C155.406 21.3405 155.489 21.6347 155.493 21.9352C155.497 22.2358 155.421 22.5319 155.273 22.7935C155.125 23.0551 154.91 23.2728 154.651 23.4243C154.392 23.5759 154.097 23.656 153.797 23.6564H136.698C136.397 23.656 136.103 23.5759 135.843 23.4243C135.584 23.2728 135.369 23.0551 135.222 22.7935C135.074 22.5319 134.998 22.2358 135.001 21.9352C135.005 21.6347 135.088 21.3405 135.242 21.0826Z" fill="#FE8A54"/>
<path d="M144.702 17.5918L144.428 10.525H146.094L145.82 17.5918H144.702ZM145.276 20.9404C145.148 20.9445 145.021 20.9222 144.902 20.8752C144.783 20.8281 144.675 20.7571 144.584 20.6666C144.496 20.5798 144.426 20.4762 144.38 20.3618C144.333 20.2475 144.309 20.1249 144.31 20.0013C144.306 19.8752 144.328 19.7496 144.375 19.6326C144.422 19.5156 144.493 19.4099 144.584 19.3223C144.676 19.2333 144.784 19.1634 144.903 19.1164C145.021 19.0694 145.148 19.0463 145.276 19.0485C145.4 19.0454 145.523 19.0677 145.637 19.1139C145.752 19.1601 145.856 19.2293 145.943 19.3173C146.03 19.4052 146.099 19.51 146.144 19.6253C146.189 19.7406 146.21 19.8639 146.206 19.9876C146.206 20.2367 146.107 20.4756 145.932 20.653C145.845 20.7439 145.739 20.8152 145.623 20.8624C145.506 20.9096 145.38 20.9315 145.254 20.9268L145.276 20.9404Z" fill="white"/>
<path fill-rule="evenodd" clip-rule="evenodd" d="M19.6692 63.2209C7.58696 66.1095 7.35992 75.7528 5.39864 83.0989C4.0118 92.3917 2.93679 101.482 2.40613 110.438C4.78318 118.986 25.4272 105.876 27.4678 104.414C26.7265 91.5238 25.0579 78.217 19.6692 63.2126V63.2209Z" fill="#8EBEE2"/>
<path fill-rule="evenodd" clip-rule="evenodd" d="M107.626 112.952C107.626 112.952 103.17 80.0954 99.9942 72.3988C97.4065 66.1014 94.1131 64.4011 88.9158 63.3634C77.3889 61.0689 75.0529 106.435 85.0234 114.792C94.8708 123.041 107.656 118.499 107.626 112.949V112.952Z" fill="#8EBEE2"/>
<path fill-rule="evenodd" clip-rule="evenodd" d="M42.8434 46.8611C43.8473 50.5464 42.92 56.2853 42.1568 59.6832C38.6966 75.0435 70.9742 76.2646 67.4072 60.4197C66.6413 57.0219 66.1435 50.5464 67.1501 46.8611C66.9012 41.7245 43.0787 41.7245 42.8434 46.8611Z" fill="#FD9E8C"/>
<path fill-rule="evenodd" clip-rule="evenodd" d="M33.6448 33.6775C31.0599 30.8766 26.0185 35.9638 29.9931 41.2372C31.6343 43.4276 34.3697 44.7966 37.0339 43.3619C37.343 43.4441 43.0819 58.1637 55.3364 57.0958C67.2764 55.5954 70.5862 39.9284 71.1525 39.8189C74.692 40.8484 77.4438 37.8174 78.1824 34.6359C79.3805 29.4336 74.1887 26.7969 72.4846 29.6444C71.5655 17.1235 65.7008 8.03053 50.7492 9.31192C35.8523 11.13 31.9762 21.236 33.6448 33.6803V33.6775Z" fill="#FD9E8C"/>
<path fill-rule="evenodd" clip-rule="evenodd" d="M52.385 32.3086C51.4057 34.9946 52.6585 36.1856 53.3178 36.621C54.4365 37.3575 53.8922 38.0831 52.8965 37.7792C51.392 37.3164 49.4773 36.0597 50.834 32.0677C52.2619 27.8621 53.1646 24.7462 50.4948 20.5379C50.1994 19.7165 55.7194 23.1828 52.385 32.3113V32.3086Z" fill="#FA816A"/>
<path fill-rule="evenodd" clip-rule="evenodd" d="M68.7479 45.5634C61.6988 58.7962 47.2724 57.7065 39.5531 47.7538C45.9293 58.8154 61.7535 62.561 68.7479 45.5634Z" fill="#EE9A7F"/>
<path fill-rule="evenodd" clip-rule="evenodd" d="M62.4783 25.3158C62.5626 25.9176 62.41 26.5287 62.0528 27.0202C61.6956 27.5116 61.1616 27.8449 60.5635 27.9497C60.271 28.0008 59.9711 27.9925 59.6818 27.9253C59.3925 27.8582 59.1197 27.7336 58.8794 27.559C58.639 27.3843 58.4362 27.1632 58.2829 26.9086C58.1296 26.654 58.0289 26.3712 57.9868 26.0769C57.9031 25.4749 58.0559 24.8638 58.413 24.3721C58.77 23.8804 59.3036 23.5464 59.9016 23.4402C60.1947 23.3888 60.4952 23.3969 60.7851 23.464C61.0751 23.531 61.3486 23.6557 61.5894 23.8307C61.8303 24.0056 62.0336 24.2272 62.1872 24.4824C62.3408 24.7375 62.4417 25.0209 62.4838 25.3158H62.4783Z" fill="#102550"/>
<path fill-rule="evenodd" clip-rule="evenodd" d="M47.8471 27.1065C47.9306 27.7083 47.7778 28.319 47.4207 28.8103C47.0636 29.3015 46.53 29.635 45.9323 29.7405C45.6395 29.7919 45.3393 29.7838 45.0497 29.7166C44.7601 29.6495 44.487 29.5247 44.2465 29.3497C44.0061 29.1747 43.8033 28.9531 43.6502 28.698C43.4972 28.4429 43.397 28.1596 43.3555 27.865C43.2705 27.263 43.4228 26.6515 43.7802 26.1599C44.1375 25.6684 44.6719 25.3352 45.2703 25.231C45.5633 25.1796 45.8636 25.1877 46.1534 25.2548C46.4431 25.3219 46.7165 25.4466 46.9571 25.6216C47.1978 25.7966 47.4008 26.0182 47.5542 26.2733C47.7075 26.5284 47.808 26.8118 47.8498 27.1065H47.8471Z" fill="#102550"/>
<path fill-rule="evenodd" clip-rule="evenodd" d="M76.0431 31.0215C72.9768 30.9969 72.5637 35.2463 73.874 36.692C74.7493 37.6585 73.5485 37.308 72.7497 36.0212C71.7048 34.3318 72.3695 31.2488 74.2241 30.6875C75.414 30.3288 76.5109 31.0243 76.0431 31.0215Z" fill="#EE9A7F"/>
<path fill-rule="evenodd" clip-rule="evenodd" d="M30.4578 35.7557C33.4667 35.1013 34.7305 39.1755 33.7403 40.8594C33.0811 41.9847 34.1834 41.407 34.7004 39.9695C35.3788 38.1022 34.0959 35.2246 32.1647 35.0411C30.9283 34.9343 29.9955 35.8406 30.4523 35.742L30.4578 35.7557Z" fill="#EE9A7F"/>
<path d="M46.6895 20.5352C45.6309 20.8583 43.7052 21.332 41.8259 20.8583C39.1972 20.1957 41.5962 22.994 44.9689 22.701C47.8985 22.4464 49.4604 19.6892 46.6895 20.5352Z" fill="#102550"/>
<path fill-rule="evenodd" clip-rule="evenodd" d="M32.7252 33.0151C34.8725 34.031 36.5821 37.7547 36.7052 37.2153C37.5504 33.4751 36.3277 32.2868 36.4618 26.8519C36.4918 25.6006 37.3152 20.2806 39.0248 17.4659C42.9145 11.0699 56.7638 12.825 61.6273 13.0495C64.2642 13.1727 66.8902 17.9999 68.1321 22.1069C69.6092 26.9915 69.1469 31.2573 70.1317 33.4122C70.3614 33.916 71.4173 30.0006 73.9749 28.533C76.6227 22.5833 74.325 5.66782 63.2166 4.18929C51.7115 -6.42054 35.9885 5.59937 29.3388 12.9509C30.3919 13.0002 31.9374 13.7368 31.6311 14.7279C29.1008 22.942 29.4428 27.7472 32.7252 33.0015V33.0151Z" fill="#1A2B47"/>
<path d="M51.096 42.8416C52.409 42.7567 54.8872 42.3898 57.4558 42.2228C60.8367 42.001 57.9208 39.4684 54.1049 39.8544C50.3629 40.2323 47.4442 43.0825 51.096 42.8416Z" fill="#102550"/>
<path d="M57.1276 19.7851C58.1451 19.3553 60.0134 18.6899 61.9309 18.9637C64.6198 19.3525 61.9309 16.8171 58.6102 17.4551C55.7216 18.0027 54.4606 20.9077 57.1276 19.7851Z" fill="#102550"/>
<path d="M17.9515 145C20.1781 130.16 20.5119 98.218 22.0026 82.8468C23.6275 90.2258 20.3614 135.584 19.8636 145H17.9515Z" fill="#1771BF"/>
<path d="M88.2707 145C86.3559 130.16 85.8717 98.218 84.6873 82.8468C82.9175 90.2258 86.055 135.584 86.3586 145H88.2707Z" fill="#1771BF"/>
<path fill-rule="evenodd" clip-rule="evenodd" d="M38.8422 65.5154C38.0927 71.3556 46.7748 72.7027 50.8779 72.6945C52.1909 70.5999 54.0072 67.8729 55.5061 65.7865C58.7394 67.3143 61.1219 63.0868 61.483 60.8033C61.6635 59.6752 61.3954 58.9414 60.8867 58.643C61.6334 57.723 63.157 55.1602 60.5037 53.8542C60.7499 52.0252 59.6831 49.3447 57.4237 49.561C56.8355 47.2528 54.7703 43.5018 52.0349 44.6545C49.4992 45.725 45.0515 49.6322 43.8999 50.5412C43.4431 47.5431 42.3298 45.8017 41.4955 44.7914C40.8456 43.9668 39.999 43.319 39.0336 42.9076C38.1255 42.4887 36.4268 43.1157 36.6046 44.293C36.7824 45.4704 38.7327 47.5485 38.7409 49.4953C38.7492 51.442 38.916 54.1034 38.7409 56.25C38.4975 59.2235 39.1513 62.9663 38.8257 65.5127L38.8422 65.5154Z" fill="#FD9E8C"/>
<path fill-rule="evenodd" clip-rule="evenodd" d="M3.903 108.237C3.903 108.237 4.12183 120.284 5.91625 125.116C6.96651 127.969 8.37957 130.675 10.1205 133.166L14.0212 103.993C14.0212 103.993 5.07922 104.335 3.90027 108.237H3.903Z" fill="#FD9E8C"/>
<path fill-rule="evenodd" clip-rule="evenodd" d="M38.8121 66.3365C34.482 79.364 24.9109 92.4627 15.4327 102.478C5.29538 113.187 1.26889 134.152 14.4754 136.109C26.0078 138.905 37.5757 107.681 41.8511 96.5369C45.4071 87.3207 50.0573 74.6136 51.1514 71.9823C52.8146 67.9492 38.8012 66.3365 38.8012 66.3365H38.8121Z" fill="#FD9E8C"/>
<path fill-rule="evenodd" clip-rule="evenodd" d="M105.558 112.07C105.558 112.07 108.641 132.651 107.555 136.416C106.469 140.181 86.2493 128.298 86.2493 128.298L86.438 112.259C86.438 111.021 99.9919 109.134 105.572 112.07H105.558Z" fill="#FD9E8C"/>
<path fill-rule="evenodd" clip-rule="evenodd" d="M63.4274 112.01C70.0005 118.781 91.5663 151.276 104.71 141.282C106.559 139.875 107.787 137.413 107.754 134.075C107.678 126.102 102.694 120.862 98.7522 118.584C88.3577 112.56 81.1746 111.802 73.0641 100.11C70.8758 96.9533 63.4274 112.015 63.4274 112.015V112.01Z" fill="#FD9E8C"/>
<path d="M43.4294 50.7767C43.4294 48.4741 41.5611 44.3479 39.2443 43.3293C37.6632 42.6366 36.6046 43.3293 37.2173 44.9886C37.789 46.5465 39.0555 46.9818 39.1485 51.0122C39.2005 53.3368 38.8941 56.5923 39.102 58.6485C39.247 60.0504 39.5233 65.7674 39.1348 66.9091C34.6898 80.1748 25.4743 92.7533 15.9141 102.851C12.3991 106.564 9.43945 112.418 7.98149 117.308C7.64777 111.865 12.4429 105.173 15.2057 102.249C24.8069 92.1181 33.8692 79.975 38.3306 66.6545C38.6425 65.7208 38.5413 59.9135 38.4182 58.7143C38.2075 56.6279 38.4182 53.449 38.3607 51.0998C38.2568 46.5465 36.7414 46.6341 36.3612 44.2548C36.1642 43.0281 37.2337 42.3847 38.2759 42.4148C41.1071 42.4997 44.1926 47.0366 44.1871 49.8075C46.6243 47.45 50.3882 44.545 52.6176 44.0056C55.353 43.343 57.0981 46.8696 57.7574 49.1257C59.9457 48.9176 61.2122 52.028 61.0781 53.8159C63.1023 54.6592 62.6209 56.9482 61.4201 58.5363C62.4923 59.3166 62.0519 61.5262 61.3325 62.6241C61.3325 62.6241 60.4928 64.5408 59.3603 65.6223C57.2841 67.2651 56.1791 66.3917 55.6675 66.3588C54.8797 67.4239 52.3003 71.2434 52.076 71.9416C51.1076 74.9671 31.9244 133.051 18.551 136.351C3.955 139.951 4.07809 117.842 3.90576 108.253C4.04085 107.783 4.29093 107.354 4.63338 107.005C4.77562 115.375 4.79476 139.527 19.0352 134.744C29.7333 131.151 46.4082 83.8657 50.856 71.7691C51.1022 71.0983 56.5675 63.6071 57.3142 62.7802C57.4784 63.0157 57.3142 63.5633 56.9614 64.2779C57.6507 64.0041 57.8422 63.5825 58.5807 63.2347C58.5151 64.0917 57.3607 64.7981 56.5319 65.0665C55.8262 66.2712 58.247 65.2663 58.9418 64.5983C59.8062 63.7988 62.1942 59.7082 60.3751 59.3604C58.4604 59.0592 56.1353 59.1414 53.9388 59.1496C52.9294 59.1496 52.6258 59.0072 51.9884 58.1721C54.7238 58.1311 57.968 57.8025 60.6569 58.2378C60.769 57.964 62.9245 55.226 60.3833 54.4758C57.7492 53.6845 49.8029 54.9057 49.5704 53.69C52.076 53.4408 57.3498 52.9672 60.0934 53.5011C60.1071 52.4059 59.3767 49.9964 58.0282 49.9827C56.7343 49.9827 53.1045 50.889 51.2088 51.3517C49.8931 51.6803 49.2038 51.6995 48.55 51.3764C49.1163 51.1601 49.9916 50.8835 50.9955 50.5988C51.7532 50.0183 52.582 49.2736 53.2057 48.7643L54.0072 49.8184C55.0493 49.572 56.0587 49.3612 56.8711 49.2298C56.3103 47.4227 54.9563 44.4601 52.9267 44.9502C50.2925 45.5882 43.1449 52.1978 42.6225 51.8665C42.7729 51.694 43.2407 50.9821 43.4431 50.7713L43.4294 50.7767Z" fill="#FA816A"/>
<path fill-rule="evenodd" clip-rule="evenodd" d="M47.2369 69.6526H65.1728C65.8135 69.6548 66.4273 69.9105 66.8803 70.3639C67.3333 70.8173 67.5887 71.4317 67.5909 72.073V95.776C67.5887 96.4173 67.3333 97.0317 66.8803 97.4851C66.4273 97.9386 65.8135 98.1943 65.1728 98.1964H47.2369C46.5962 98.1943 45.9824 97.9386 45.5294 97.4851C45.0764 97.0317 44.8209 96.4173 44.8188 95.776V72.073C44.8209 71.4317 45.0764 70.8173 45.5294 70.3639C45.9824 69.9105 46.5962 69.6548 47.2369 69.6526Z" fill="#1A2B47"/>
<path fill-rule="evenodd" clip-rule="evenodd" d="M66.8713 89.837C67.2816 91.6961 67.1175 93.1993 67.1065 94.1549C65.8756 93.547 62.0488 87.1538 61.6877 86.2858C61.4661 85.7601 58.6788 79.0903 58.2138 78.3154C56.8242 76.0347 53.2901 76.355 54.2092 79.9939C54.2283 80.065 55.3991 84.35 56.8926 87.5864C57.1907 88.2298 59.814 94.4314 59.9015 95.4007C57.8554 95.3295 51.9689 91.0062 51.047 90.0835C50.6094 89.6454 45.9538 83.8818 45.6474 83.5752C43.2895 81.215 39.8429 83.1426 43.005 87.047C40.7045 87.5125 42.4114 91.3594 42.8655 92.4409C42.8655 92.4409 42.1133 93.6867 42.3184 94.7381C42.5236 95.7895 44.6982 100.272 45.0046 100.622C50.3933 106.785 56.2197 109.219 63.3672 111.774C69.7352 111.963 74.2486 110.89 74.2486 103.064C73.3897 99.8582 72.963 93.8263 72.539 90.6338C72.2928 88.7582 68.8763 86.253 67.6372 84.654C67.1831 84.0708 66.6907 82.1103 65.4489 83.1535C64.2426 84.1584 64.1113 87.9286 66.8822 89.837H66.8713Z" fill="#FD9E8C"/>
<path d="M105.558 112.07C106.562 119.402 109.83 130.267 107.73 137.388C105.481 146.999 93.823 142.93 87.8434 139.187C77.9085 132.964 71.7621 120.864 63.2112 112.144C58.8073 110.274 55.9078 109.808 51.8375 106.912C49.548 105.269 46.4816 102.985 44.6708 100.913C44.1237 100.296 42.0612 95.7733 41.8834 94.8205C41.6837 93.7581 42.3101 92.6793 42.5071 92.3754C42.1412 91.6486 41.8303 90.8954 41.5771 90.122C41.3035 89.2048 41.4184 87.3101 42.3621 86.7981L42.2253 86.5763C41.6783 85.6864 41.3336 84.9335 41.309 84.2462C41.2461 82.5268 43.1937 81.615 44.7173 82.3679C45.94 82.9758 47.4527 85.106 48.2733 86.1108C49.6218 87.7536 51.1044 89.5662 51.3287 89.7907C51.3506 89.7907 53.5745 91.3377 55.7819 92.7861C56.9277 93.5607 58.1354 94.2392 59.3926 94.815C57.8198 91.6553 54.7425 83.2742 53.8972 79.89C52.9289 76.0705 56.6326 75.3258 58.4626 78.1185C58.9714 78.7894 61.146 84.1285 61.8025 85.7385C62.7134 87.9645 65.1151 91.8278 66.8028 93.5363C66.8028 92.6328 66.7481 90.4122 66.6879 90.1028C64.9291 88.8297 64.1905 86.4449 64.2562 84.8486C64.3054 83.6192 65.137 81.9162 66.7645 82.7513C67.3745 83.0634 67.5496 83.8465 67.8942 84.3393C68.4413 85.1443 69.3276 85.9821 70.2084 86.8035C71.2642 87.7892 72.5252 89.2431 72.8836 90.6833C73.0833 92.1646 73.1352 93.8923 73.2693 95.4475C74.1145 105.189 80.674 108.806 88.7297 112.697C93.0516 114.783 98.1175 116.722 101.209 120.473C97.059 117.735 91.6347 115.361 88.2428 113.724C78.5349 109.028 73.5237 105.384 72.6511 95.6035C72.5116 94.062 72.4104 91.962 72.2654 90.8202C71.9672 89.673 71.0618 88.4765 69.7871 87.2827C68.879 86.4312 67.9708 85.5824 67.3772 84.7172C67.1283 84.353 66.8548 83.5289 66.491 83.3482C65.4214 82.8006 64.9619 84.1942 64.9345 84.8869C64.9065 85.8224 65.1062 86.7507 65.5166 87.5916C65.9269 88.4326 66.5354 89.161 67.2897 89.7141C67.1803 90.2069 67.8997 93.0791 67.1912 94.6781C65.7141 93.7828 61.9283 87.7399 61.2089 85.9849C60.5606 84.3941 58.4106 79.1179 57.9511 78.5128C56.3099 76.3224 53.7632 76.6345 54.5455 79.7312C55.8777 85.0211 58.8319 90.5245 60.4594 95.9403C58.1562 95.4502 57.7624 94.982 55.3853 93.5528C53.2517 92.2714 50.7133 90.4232 50.7598 90.3767C50.5054 90.122 49.0118 88.2985 47.6496 86.6338C46.8947 85.7138 45.434 83.6493 44.3507 83.1127C43.3934 82.6363 42.0968 83.1428 42.1351 84.2079C42.1542 84.7199 42.4496 85.3606 42.9283 86.1245C43.4508 86.9706 44.5696 88.6599 45.5926 90.1987C46.5664 91.6498 47.4691 92.9613 47.7371 93.2926C49.7039 95.7158 54.4443 97.9117 56.3099 100.269C54.7069 100.212 48.194 95.431 47.1764 94.188C46.9029 93.8375 45.8908 92.1564 44.906 90.6888C44.1729 89.5936 43.3988 88.4217 42.8189 87.5264C42.4469 87.718 42.2007 89.3116 42.3703 89.903C42.9447 91.8798 45.7157 96.7946 47.0396 98.462C48.9544 100.861 53.4404 101.931 54.9504 104.075C53.5827 104.31 47.3104 100.135 46.3913 98.9768C45.5324 97.8816 44.0991 95.5104 42.9995 93.372C42.7723 93.764 42.6845 94.2215 42.7505 94.6699C42.901 95.4748 44.8951 99.842 45.3355 100.343C47.2913 102.58 49.8489 104.412 52.2505 106.134C56.3536 109.072 59.2668 109.502 63.7173 111.41C71.7703 119.424 78.5595 131.671 88.7707 137.936C94.5643 141.495 103.996 145.548 106.761 136.761C108.523 131.151 105.621 117.907 104.765 111.711C105.032 111.819 105.294 111.941 105.55 112.075L105.558 112.07Z" fill="#FA816A"/>
<path d="M15.112 24.1163C14.8344 23.7623 14.6324 23.3551 14.5184 22.9198C14.4208 22.5326 14.3811 22.133 14.4008 21.7342C14.4195 21.3516 14.4661 20.9709 14.5403 20.5952C14.6142 20.2201 14.6798 19.8669 14.7373 19.5301C14.7946 19.2159 14.812 18.8958 14.7893 18.5773C14.767 18.279 14.6586 17.9937 14.4774 17.7559C14.3369 17.5602 14.1503 17.4023 13.9341 17.2962C13.7179 17.1902 13.4789 17.1393 13.2383 17.148C12.6475 17.1745 12.0817 17.3937 11.6271 17.7723C11.1255 18.1353 10.7214 18.6169 10.4509 19.1742C10.1986 19.704 10.0812 20.2881 10.109 20.8745L7.15204 21.2112C7.09518 20.1495 7.31679 19.0914 7.79486 18.1419C8.878 16.194 10.65 14.7222 12.7623 14.0157C13.5112 13.7788 14.3108 13.7523 15.0737 13.9391C15.8182 14.1468 16.4678 14.6064 16.9119 15.2396C17.2181 15.6347 17.4464 16.0844 17.5848 16.5648C17.7008 16.9796 17.7461 17.4109 17.7189 17.8407C17.692 18.2483 17.6371 18.6536 17.5547 19.0537C17.4727 19.4507 17.4016 19.8313 17.3386 20.1982C17.2771 20.5432 17.2596 20.8947 17.2867 21.2441C17.3231 21.5925 17.4568 21.9237 17.6723 22.1997L15.112 24.1163ZM19.5926 27.4019C19.3828 27.5723 19.1403 27.6976 18.8801 27.7702C18.6198 27.8427 18.3475 27.8609 18.0799 27.8236C17.8288 27.7926 17.5865 27.7108 17.3679 27.5833C17.1492 27.4557 16.9587 27.285 16.808 27.0816C16.6524 26.8825 16.5407 26.6527 16.4804 26.4072C16.42 26.1618 16.4123 25.9064 16.4578 25.6578C16.5759 25.1321 16.8773 24.6658 17.308 24.3426C17.7386 24.0194 18.2703 23.8605 18.8075 23.8945C19.0571 23.9232 19.2978 24.0041 19.5141 24.1319C19.7304 24.2597 19.9175 24.4316 20.0631 24.6365C20.2173 24.8366 20.3292 25.066 20.3922 25.3108C20.4552 25.5555 20.468 25.8105 20.4296 26.0603C20.3904 26.3297 20.2957 26.588 20.1516 26.8189C20.0076 27.0499 19.8172 27.2484 19.5926 27.4019Z" fill="#FE8A54"/>
<path d="M21.3351 12.5949C21.2532 12.0901 21.2755 11.5739 21.4007 11.0781C21.5155 10.6398 21.6943 10.2209 21.9314 9.835C22.1623 9.45905 22.4201 9.10034 22.7027 8.76169C22.9763 8.43039 23.2498 8.11552 23.4823 7.81434C23.7098 7.53172 23.9026 7.22286 24.0568 6.89436C24.1988 6.58367 24.2473 6.2383 24.1963 5.90046C24.1633 5.62922 24.0642 5.37025 23.9078 5.14633C23.7513 4.92241 23.5423 4.74041 23.2991 4.61633C22.6985 4.31664 22.0168 4.22054 21.3569 4.34253C20.6598 4.42856 19.9946 4.6853 19.4203 5.09001C18.8803 5.47913 18.4444 5.9954 18.1511 6.59318L15.0327 5.30631C15.555 4.21925 16.3541 3.28906 17.3496 2.60936C19.4913 1.27158 22.0553 0.783302 24.5382 1.24036C25.4122 1.41512 26.2213 1.82716 26.877 2.4314C27.5033 3.04449 27.8969 3.85669 27.9903 4.72859C28.0795 5.28915 28.061 5.86163 27.9355 6.41521C27.8238 6.89074 27.6333 7.34421 27.3721 7.75684C27.1242 8.14659 26.85 8.51892 26.5514 8.87121C26.2506 9.22168 25.9715 9.56119 25.7089 9.88976C25.4604 10.1991 25.2518 10.5385 25.088 10.9001C24.9312 11.2666 24.8819 11.6702 24.9458 12.0637L21.3351 12.5949ZM23.9856 18.3201C23.6839 18.3742 23.3742 18.3657 23.0759 18.295C22.7776 18.2244 22.497 18.0931 22.2514 17.9094C22.0182 17.7417 21.8219 17.5278 21.6746 17.281C21.5273 17.0342 21.4322 16.7598 21.3952 16.4747C21.3488 16.1921 21.3631 15.9028 21.4371 15.6261C21.5112 15.3494 21.6433 15.0917 21.8247 14.8702C22.2305 14.4143 22.7848 14.1173 23.3889 14.0321C23.9929 13.9468 24.6076 14.0789 25.1236 14.4047C25.3558 14.5704 25.5507 14.7829 25.6958 15.0286C25.8409 15.2743 25.933 15.5478 25.9661 15.8313C26.0096 16.1142 25.9953 16.4031 25.9238 16.6804C25.8523 16.9576 25.7252 17.2174 25.5503 17.444C25.3643 17.6904 25.1292 17.8956 24.8598 18.0464C24.5905 18.1972 24.2928 18.2904 23.9856 18.3201Z" fill="#FE8A54"/>
<path fill-rule="evenodd" clip-rule="evenodd" d="M48.9628 73.8442C49.2593 73.8442 49.5491 73.9322 49.7956 74.0971C50.0421 74.262 50.2342 74.4963 50.3477 74.7705C50.4611 75.0446 50.4908 75.3463 50.433 75.6374C50.3752 75.9284 50.2324 76.1958 50.0227 76.4056C49.8131 76.6155 49.546 76.7584 49.2552 76.8163C48.9645 76.8742 48.6631 76.8445 48.3892 76.7309C48.1153 76.6173 47.8811 76.425 47.7164 76.1783C47.5517 75.9315 47.4638 75.6414 47.4638 75.3447C47.4638 74.9467 47.6217 74.5651 47.9029 74.2837C48.184 74.0023 48.5652 73.8442 48.9628 73.8442Z" fill="#EBEBEB"/>
<path fill-rule="evenodd" clip-rule="evenodd" d="M48.9628 78.3073C49.2601 78.3067 49.5508 78.3945 49.7981 78.5594C50.0455 78.7244 50.2384 78.9591 50.3524 79.2339C50.4664 79.5087 50.4964 79.8112 50.4385 80.103C50.3807 80.3949 50.2376 80.6629 50.0274 80.8733C49.8172 81.0837 49.5494 81.2269 49.2578 81.2848C48.9663 81.3428 48.6641 81.3128 48.3896 81.1987C48.1151 81.0845 47.8806 80.8915 47.7158 80.6438C47.551 80.3962 47.4633 80.1052 47.4638 79.8077C47.4645 79.41 47.6227 79.0287 47.9037 78.7475C48.1846 78.4663 48.5655 78.308 48.9628 78.3073Z" fill="#EBEBEB"/>
</g>
<defs>
<clipPath id="clip0_276_1133">
<rect width="155.501" height="145" fill="white"/>
</clipPath>
</defs>
</svg>
